<svg width="101" height="42" viewBox="0 0 101 42" fill="none" xmlns="http://www.w3.org/2000/svg">
    <path fill-rule="evenodd" clip-rule="evenodd" d="M27.9404 11.3831L25.3533 13.3234L20.3732 1.03483L27.9404 11.3831ZM24.5772 13.2587L9.50748 7.89057L19.3384 0.38806L24.5772 13.2587ZM24.3831 13.9702L10.607 22.5075L9.1841 8.53733L24.3831 13.9702ZM18.8209 0L8.92539 7.5025L6.59703 1.35821L18.8209 0ZM6.07961 1.81095L8.40798 7.95524L0 14.4229L6.07961 1.81095ZM8.53733 8.66669L9.96022 22.3135L0.258703 15.1344L8.53733 8.66669ZM0.776119 16.3632L9.89554 23.1543L8.73136 25.418L0.776119 16.3632ZM9.37813 25.6767L10.4776 23.4777L20.2438 25.6767H9.37813ZM21.5374 25.2886L11.1891 22.9603L24.5772 14.6169L21.5374 25.2886ZM22.7662 23.5423L25.4826 14.0995L27.811 12.2886L22.7662 23.5423ZM38.224 25.6116L37.1245 22.9599H31.0449L29.9454 25.6116H27.617L33.8907 11.6414H34.3434L40.5524 25.6116H38.224ZM34.02 15.8454L31.6917 21.2783H36.3484L34.02 15.8454ZM44.2391 25.6124V21.3437C44.2391 19.3387 45.2093 18.0452 46.6968 18.0452C47.1496 18.0452 47.5376 18.1746 47.9257 18.3039V16.2989C47.667 16.1696 47.3436 16.1049 46.9555 16.1049C45.5973 16.1049 44.6272 16.687 44.0451 17.9159H43.9804L43.657 16.3636H42.0401V25.6124H44.2391ZM52.1939 13.3879H52.6466V16.363H55.169V18.0446H52.6466V22.5073C52.6466 23.5422 52.97 24.0596 53.9402 24.0596C54.4576 24.0596 55.0397 23.8655 55.6218 23.5422V25.2884C54.975 25.6765 54.2636 25.9352 53.3581 25.9352C51.1591 25.9352 50.4476 24.771 50.4476 22.4427V18.1093H48.9601V16.8805L50.6417 16.4277L52.1939 13.3879ZM65.6467 20.8916C65.6467 19.4687 65.2587 18.3045 64.4179 17.3991C63.6417 16.4936 62.5422 16.0409 61.0547 16.0409C59.6965 16.0409 58.5969 16.4936 57.6915 17.4637C56.8507 18.4339 56.3979 19.5981 56.3979 20.9563C56.3979 22.4439 56.8507 23.608 57.7562 24.5135C58.6616 25.419 59.9552 25.8717 61.5721 25.8717C62.995 25.8717 64.2238 25.5483 65.194 24.8369V23.0259C64.1592 23.7374 62.995 24.1255 61.7661 24.1255C60.0198 24.1255 58.791 23.22 58.6616 21.409H65.6467V20.8916ZM63.5771 19.9215H58.7263C58.985 18.6279 59.8905 17.7225 61.184 17.6578C62.4776 17.6578 63.3184 18.4986 63.5771 19.9215ZM74.184 16.4917V18.3673C73.6019 18.0439 72.8904 17.8499 72.1143 17.8499C70.3034 17.8499 69.0098 19.0788 69.0098 21.0837C69.0098 22.0539 69.2685 22.7653 69.8506 23.3474C70.4327 23.8648 71.1442 24.1882 72.1143 24.1882C73.0845 24.1882 73.8606 23.9295 74.572 23.5415V25.3524C73.7959 25.7405 72.8258 25.9992 71.5969 25.9992C70.0447 25.9992 68.8805 25.5464 68.0397 24.641C67.1989 23.7355 66.8108 22.5713 66.8108 21.2131C66.8108 19.7902 67.2636 18.5614 68.2337 17.6559C69.2039 16.6857 70.368 16.233 71.8556 16.233C72.6964 16.039 73.5372 16.233 74.184 16.4917ZM84.5326 13.1296L80.458 17.9803L80.7167 18.3037C81.1047 18.239 81.5575 18.1744 82.0749 18.1744C83.1097 18.1744 83.9505 18.4331 84.662 18.9505C85.4381 19.4679 85.7615 20.1793 85.7615 21.1495C85.7615 23.1545 84.4033 24.5127 82.1396 24.5127C80.5227 24.5127 79.1644 24.06 78.0003 23.0251V24.642C79.0998 25.4182 80.5226 25.8062 82.2042 25.8062C83.6271 25.8062 84.7913 25.4182 85.7615 24.5774C86.7963 23.7366 87.249 22.6371 87.249 21.2788C87.249 18.7565 85.5674 17.1395 82.9157 17.0749L87.1197 12.0947V11.836H78.5177V13.0649H84.5326V13.1296ZM89.3184 25.6104V11.7695H94.0398C96.1095 11.7695 97.791 12.4163 99.0199 13.6452C100.249 14.874 100.896 16.5556 100.896 18.6253C100.896 20.6949 100.313 22.3765 99.1493 23.6701C97.9851 24.9636 96.3682 25.6104 94.2985 25.6104H89.3184ZM97.9204 14.68C97.0796 13.6452 95.7861 13.1277 94.1045 13.1277H91V24.1228H94.2985C95.9154 24.1228 97.1443 23.6054 97.9851 22.5706C98.8259 21.5357 99.2139 20.2422 99.2139 18.5606C99.2139 17.073 98.7612 15.7148 97.9204 14.68ZM30.168 34.4844C30.6289 33.9141 31.2617 33.6289 32.0664 33.6289C32.4219 33.6289 32.7598 33.6817 33.0801 33.7871C33.4043 33.8887 33.7109 34.0078 34 34.1445L34.5039 32.9785C33.7617 32.6113 32.9531 32.4277 32.0781 32.4277C31.2461 32.4277 30.5215 32.6055 29.9043 32.961C29.2871 33.3164 28.8144 33.8281 28.4863 34.4961C28.1621 35.1641 28 35.9434 28 36.834C28 38.2481 28.3359 39.336 29.0078 40.0977C29.6797 40.8555 30.6426 41.2344 31.8965 41.2344C32.748 41.2344 33.5098 41.1074 34.1816 40.8535V39.6524C33.8144 39.7656 33.4609 39.8594 33.1211 39.9336C32.7812 40.0039 32.4297 40.0391 32.0664 40.0391C31.2265 40.0391 30.584 39.7695 30.1387 39.2305C29.6972 38.6914 29.4765 37.8965 29.4765 36.8457C29.4765 35.8418 29.707 35.0547 30.168 34.4844ZM37.2579 41.1172H35.8809V32H37.2579V41.1172ZM44.166 40.3438C44.709 39.75 44.9805 38.9238 44.9805 37.8652C44.9805 36.8418 44.707 36.0293 44.1601 35.4277C43.6133 34.8223 42.8711 34.5195 41.9336 34.5195C40.9531 34.5195 40.1933 34.8145 39.6543 35.4043C39.1152 35.9942 38.8457 36.8145 38.8457 37.8652C38.8457 38.541 38.9707 39.1348 39.2207 39.6465C39.4707 40.1582 39.8281 40.5508 40.293 40.8242C40.7578 41.0977 41.293 41.2344 41.8984 41.2344C42.8672 41.2344 43.623 40.9375 44.166 40.3438ZM41.9219 40.1094C40.8164 40.1094 40.2637 39.3613 40.2637 37.8652C40.2637 37.1504 40.3926 36.6016 40.6504 36.2188C40.9121 35.836 41.332 35.6445 41.9101 35.6445C43.0117 35.6445 43.5625 36.3848 43.5625 37.8652C43.5625 39.3613 43.0156 40.1094 41.9219 40.1094ZM51.1387 41.1172L50.9453 40.2676H50.875C50.6836 40.5684 50.4101 40.8047 50.0547 40.9766C49.7031 41.1484 49.3008 41.2344 48.8476 41.2344C48.0625 41.2344 47.4765 41.0391 47.0898 40.6484C46.7031 40.2578 46.5098 39.666 46.5098 38.8731V34.6367H47.8984V38.6328C47.8984 39.1289 48 39.502 48.2031 39.752C48.4062 39.9981 48.7246 40.1211 49.1582 40.1211C49.7363 40.1211 50.1601 39.9492 50.4297 39.6055C50.7031 39.2578 50.8398 38.6777 50.8398 37.8652V34.6367H52.2226V41.1172H51.1387ZM54.4785 40.3555C54.9316 40.9414 55.5625 41.2344 56.3711 41.2344C57.2226 41.2344 57.8691 40.9121 58.3105 40.2676H58.375L58.6152 41.1172H59.6933V32H58.3105V34.3613C58.3105 34.6309 58.3437 34.9981 58.4101 35.4629H58.3398C57.8945 34.834 57.2461 34.5195 56.3945 34.5195C55.582 34.5195 54.9453 34.8164 54.4844 35.4102C54.0273 36 53.7988 36.8262 53.7988 37.8887C53.7988 38.9473 54.0254 39.7695 54.4785 40.3555ZM57.9765 39.6465C57.7187 39.9629 57.3066 40.1211 56.7402 40.1211C56.2324 40.1211 55.8515 39.9336 55.5976 39.5586C55.3437 39.1797 55.2168 38.6309 55.2168 37.9121C55.2168 37.1856 55.3476 36.627 55.6094 36.2363C55.8711 35.8418 56.2441 35.6445 56.7285 35.6445C57.2949 35.6445 57.7109 35.8164 57.9765 36.1602C58.2422 36.5039 58.375 37.084 58.375 37.9004V38.0938C58.3672 38.8086 58.2344 39.3262 57.9765 39.6465Z" fill="black"/>
</svg>
